<svg xmlns="http://www.w3.org/2000/svg" viewBox="0 0 512 512" role="img" aria-label="Personic Labs logo">

<defs>
  <clipPath id="outer-primary-gradient">
    <path d="M256 40 C267 40 278 45 287 52 L443 165 C455 174 460 189 456 204 L394 419 C390 434 376 444 360 444 H152 C136 444 122 434 118 419 L56 204 C52 189 57 174 69 165 L225 52 C234 45 245 40 256 40 Z"/>
  </clipPath>
  <mask id="p-mask-primary-gradient" maskUnits="userSpaceOnUse" x="0" y="0" width="512" height="512">
    <rect width="512" height="512" fill="white"/>
    <path d="M198 168 H252 C326 168 370 214 370 260 C370 304 333 336 282 336 H252 V444 H198 Z" fill="black"/>
  </mask>
  
  <linearGradient id="violet-primary-gradient" x1="225" y1="52" x2="328" y2="244" gradientUnits="userSpaceOnUse">
    <stop offset="0" stop-color="#7B4CFF"/>
    <stop offset="1" stop-color="#4E2DDE"/>
  </linearGradient>
  <linearGradient id="cyan-primary-gradient" x1="62" y1="170" x2="241" y2="354" gradientUnits="userSpaceOnUse">
    <stop offset="0" stop-color="#30CCFF"/>
    <stop offset="1" stop-color="#00A4D8"/>
  </linearGradient>
  <linearGradient id="mint-primary-gradient" x1="334" y1="160" x2="410" y2="420" gradientUnits="userSpaceOnUse">
    <stop offset="0" stop-color="#64DDBD"/>
    <stop offset="1" stop-color="#33C9A8"/>
  </linearGradient>
  <linearGradient id="magenta-primary-gradient" x1="128" y1="304" x2="245" y2="440" gradientUnits="userSpaceOnUse">
    <stop offset="0" stop-color="#FF2C9D"/>
    <stop offset="1" stop-color="#D91E7F"/>
  </linearGradient>
  <linearGradient id="amber-primary-gradient" x1="260" y1="296" x2="390" y2="444" gradientUnits="userSpaceOnUse">
    <stop offset="0" stop-color="#FFD15B"/>
    <stop offset="1" stop-color="#FFAA18"/>
  </linearGradient>

</defs>

<g mask="url(#p-mask-primary-gradient)">
  
<g clip-path="url(#outer-primary-gradient)">
  <polygon points="225,52 287,52 443,165 304,232 256,270 198,232 69,165" fill="url(#violet-primary-gradient)"/>
  <polygon points="443,165 456,204 394,419 330,384 256,270 304,232" fill="url(#mint-primary-gradient)"/>
  <polygon points="394,419 360,444 256,444 256,270 330,384" fill="url(#amber-primary-gradient)"/>
  <polygon points="256,444 152,444 118,419 181,384 256,270" fill="url(#magenta-primary-gradient)"/>
  <polygon points="118,419 56,204 69,165 198,232 256,270 181,384" fill="url(#cyan-primary-gradient)"/>
</g>

</g>
<path d="M247 232 C247 224 256 220 263 225 L316 255 C323 259 323 268 316 272 L263 302 C256 307 247 303 247 294 Z" fill="#30CCFF"/>

</svg>
